<?xml version="1.0" encoding="UTF-8"?>
<svg id="Layer_2" data-name="Layer 2" xmlns="http://www.w3.org/2000/svg" xmlns:xlink="http://www.w3.org/1999/xlink" viewBox="0 0 1720.07 478.31">
  <defs>
    <style>
      .cls-1 {
        fill: #f0f9ff;
      }

      .cls-2 {
        fill: #051928;
      }

      .cls-3 {
        fill: url(#linear-gradient);
      }
    </style>
    <linearGradient id="linear-gradient" x1="747.47" y1="-15.71" x2="1434.53" y2="671.35" gradientUnits="userSpaceOnUse">
      <stop offset="0" stop-color="#39bcff"/>
      <stop offset="1" stop-color="#6af8ff"/>
    </linearGradient>
  </defs>
  <g id="Layer_1-2" data-name="Layer 1">
    <g>
      <path class="cls-1" d="M346.38,32.17l-37.02,95.91c-.06.14-.21.2-.35.15-32.71-12.77-66.48-21.22-101.31-25.34-16.54-1.96-32.68-2.16-48.95-.59-7.36.71-13.63,2.42-18.82,5.12-6.07,3.16-11.23,10.51-8.58,17.37,4.23,10.95,32.7,19.38,43,22.44,27.88,8.29,55.58,17.14,83.11,26.55,35.83,12.26,70.82,33.17,90.41,65.49,13.81,22.8,14.64,54.94,9.01,80.27-18.02,81.02-117.8,93.54-184.37,91.66-58.73-1.67-118.65-14.07-172.38-38.17-.1-.04-.15-.15-.12-.25l34.92-97.99c.06-.17.25-.26.42-.2,0,0,.01,0,.02,0,6.85,2.98,13.81,5.72,20.9,8.23,34.1,12.07,69.02,20.89,104.77,26.45,16.18,2.51,32.33,2.39,48.45-.37,12.91-2.21,25.74-10.91,24.29-25.11-1.46-14.35-17.88-18.66-29.13-22.3-12.03-3.89-21.74-6.71-29.13-8.47-22.68-5.38-45.09-11.73-67.22-19.05-45.28-14.97-93.68-45.33-100.37-97.05-4.24-32.74,2.91-64.82,25.62-89.42C70.07,7.95,129.55.15,180.26,0c55.94-.17,114.18,8.83,165.74,31.26.35.15.52.55.38.91Z"/>
      <path class="cls-1" d="M576.79,114.11L654.31,7.94c.06-.08.15-.13.25-.13h135.19c.17,0,.31.14.31.31,0,.06-.02.13-.06.18l-145.35,198.87c-.08.11-.08.25,0,.36l142.61,195.04c.1.14.07.33-.07.43-.05.04-.11.06-.18.06h-135.19c-.1,0-.19-.05-.25-.13L362.51,8.3c-.1-.14-.07-.33.07-.43.05-.04.11-.06.18-.06h135.19c.1,0,.19.05.25.13l78.09,106.17c.1.14.3.17.43.07.03-.02.05-.04.07-.07Z"/>
      <path class="cls-3" d="M1690.72,7.99h-833.87s-145.6,199.22-145.6,199.22c-.47.44,142.89,195.41,142.89,195.78h836.58c16.21,0,29.35-13.14,29.35-29.35V37.34c0-16.21-13.14-29.35-29.35-29.35ZM466.1,266.25s-.05-.06-.08-.08c-.16-.12-.38-.09-.5.07l-155.88,211.5c-.04.06-.07.13-.07.21,0,.2.16.36.36.36h135.79c.12,0,.22-.06.29-.15l87.62-119.18c.09-.13.09-.29,0-.42l-67.53-92.31Z"/>
      <g>
        <path class="cls-2" d="M915.03,71.28h140.33c34.72,0,56.56,8.11,71.24,23.23,8.95,9.22,15.39,22.49,15.39,40.19v.74c0,30.97-17.54,49.04-44.75,59,32.58,9.96,52.98,27.29,52.98,62.68v.74c0,41.3-32.93,71.53-96.3,71.53h-138.9V71.28ZM1059.65,154.24c0-11.8-8.95-17.7-26.85-17.7h-36.16v36.14h36.51c17.54,0,26.49-5.9,26.49-17.7v-.74ZM1066.1,244.58c0-11.43-8.95-18.8-27.21-18.8h-42.24v38.35h41.88c18.26,0,27.56-7.37,27.56-18.81v-.74Z"/>
        <path class="cls-2" d="M1160.25,266.71l103.82-76.69c15.75-11.43,21.84-21.39,21.84-31.34,0-11.43-8.23-19.17-22.55-19.17s-27.21,8.85-48.33,32.08l-55.13-48.3c29-36.5,58.35-56.78,110.62-56.78,57.28,0,98.45,35.4,98.45,84.44v.74c0,39.08-20.41,60.84-50.48,80.75l-44.75,29.5h97.73v67.48h-211.21v-62.68Z"/>
        <path class="cls-2" d="M1386.5,201.07v-.74c0-77.06,58.35-134.59,133.17-134.59,55.49,0,92.36,27.65,113.48,67.11l-69.09,41.67c-9.67-18.81-22.55-31.34-45.46-31.34-28.28,0-46.9,25.44-46.9,56.41v.74c0,33.55,19.33,57.15,46.9,57.15,23.99,0,36.87-13.27,47.25-32.45l69.09,40.19c-21.12,38.35-56.56,69.69-118.49,69.69-69.45,0-129.95-53.83-129.95-133.85Z"/>
      </g>
    </g>
  </g>
</svg>